<?xml version="1.0" encoding="UTF-8"?>
<svg xmlns="http://www.w3.org/2000/svg" viewBox="0 0 677.42 677.42">
	<path fill="#114954" d="M256.43,425.33c0-32.3-22.33-51.31-68.74-51.31h-58.33c-7.15,0-11.6-4.49-11.6-10.07
		c0-5.96,4.52-10.35,11.6-10.35h44.06c45.54,0,78.28-28.79,78.28-70.88v-65.54c-12.76,0-23.83,8-28.57,18.97
		c-11.92-13.36-30.11-21.33-53.28-21.33h-4.77c-41.05,0-73.79,27.85-73.79,69.09c0,21.07,8.66,37.01,22.89,47.73
		c-15.15,4.42-25.9,16.62-25.9,32.3c0,14.55,8.94,26.09,22.33,31.14c-14.24,8-22.89,20.45-22.89,37.38
		c0,28.48,27.97,46.82,82.7,46.82h3.29c54.76,0,82.73-19.26,82.73-53.94V425.33z M188.88,323.31h-34.81
		c-16.94,0-30.67-12.73-30.67-29.32v-18.35c0.02-4.03,0.82-7.89,2.39-11.6c1.57-3.71,3.8-6.97,6.67-9.78
		c2.88-2.81,6.19-4.96,9.93-6.45c3.74-1.49,7.62-2.19,11.65-2.12h34.84c16.94,0,30.64,13.02,30.64,29.95v18.06
		c0,16.93-13.67,29.7-30.64,29.7L188.88,323.31z M199.04,448.44h-54.51c-14.61,0-25.03-8.87-25.03-21.07v-2.35
		c0-12.48,10.41-21.64,25.03-21.64h54.44c14.61,0,25.31,9.16,25.31,21.64v2.35c0,12.2-10.69,21.07-25.31,21.07H199.04z
		 M274.62,289.85c0,44.78,32.74,75.05,78,75.05h6.27c45.22,0,78.25-30.26,78.25-75.05c0-44.81-33.09-74.98-78.34-74.98h-6.24
		c-45.19,0-77.93,30.23-77.93,74.95L274.62,289.85z M373.41,334.07H338c-4.12,0.04-8.09-0.71-11.91-2.25
		c-3.82-1.54-7.2-3.76-10.13-6.65c-2.93-2.89-5.2-6.23-6.8-10.03c-1.6-3.8-2.41-7.75-2.43-11.87v-26.66
		c0-16.93,13.7-30.83,31.27-30.83h35.44c4.14-0.07,8.13,0.66,11.97,2.19c3.84,1.53,7.25,3.74,10.21,6.63
		c2.96,2.89,5.25,6.24,6.87,10.05c1.62,3.81,2.44,7.78,2.47,11.92v26.66c-0.03,4.14-0.85,8.12-2.47,11.93
		c-1.62,3.81-3.91,7.17-6.87,10.06c-2.96,2.9-6.37,5.11-10.22,6.64C381.55,333.4,377.55,334.13,373.41,334.07L373.41,334.07z
		 M452.53,361.95h136.89v-29.7h-51.5V219.6c0-18.69-12.23-31.14-30.92-31.14v29.32h-53.88v29.7h25.28c14.27,0,24.74-7.15,28.6-18.41
		v103.18h-54.47L452.53,361.95L452.53,361.95z"/>
</svg>
