<?xml version="1.0"?>
<svg xmlns="http://www.w3.org/2000/svg" viewBox="0 0 300 174.56">
    <path d="m218.15 104.09h81.85v-17.79h-30.78v-67.62c0-11.21-7.3-18.68-18.51-18.68v17.62h-32.2v17.79h15.12c8.54 0 14.77-4.27 17.08-11v61.89h-32.56zm-47.33-16.72h-21.18a18.54 18.54 0 0 1 -18.64-18.51v-16a18.54 18.54 0 0 1 18.68-18.51h21.18a18.57 18.57 0 0 1 18.86 18.51v16a18.57 18.57 0 0 1 -18.86 18.51m-59.12-26.51c0 26.86 19.58 45 46.62 45h3.74c27.05 0 46.8-18.15 46.8-45s-19.75-45-46.8-45h-3.74c-27 0-46.62 18.15-46.62 45m-45.19 95.19h-32.55c-8.72 0-15-5.34-15-12.63v-1.42c0-7.48 6.23-13 15-13h32.55c8.72 0 15.12 5.51 15.12 13v1.42c0 7.29-6.4 12.63-15.12 12.63m-6.05-75.05h-20.82c-10.14 0-18.33-7.65-18.33-17.61v-11a18 18 0 0 1 18.33-18h20.82a18 18 0 0 1 18.33 18v10.78c0 10.14-8.19 17.83-18.33 17.83m40.39 61.21c0-19.39-13.34-30.78-41.1-30.78h-34.88c-4.27 0-6.94-2.67-6.94-6 0-3.56 2.67-6.23 6.94-6.23h26.34c27.22-.09 46.75-17.35 46.75-42.62v-39.32a18.77 18.77 0 0 0 -17 11.39c-7.12-8-18-12.81-31.85-12.81h-2.89c-24.55 0-44.12 16.72-44.12 41.46 0 12.63 5.16 22.24 13.7 28.64-9.08 2.67-15.48 9.97-15.48 19.4 0 8.72 5.33 15.66 13.34 18.66-8.54 4.83-13.7 12.3-13.7 22.44 0 17.09 16.73 28.12 49.47 28.12h2c32.74 0 49.47-11.57 49.47-32.39" fill="#114954"/>
</svg>
