<?xml version="1.0" encoding="UTF-8" standalone="no"?>
<svg
        xmlns:dc="http://purl.org/dc/elements/1.1/"
        xmlns:cc="http://creativecommons.org/ns#"
        xmlns:rdf="http://www.w3.org/1999/02/22-rdf-syntax-ns#"
        xmlns="http://www.w3.org/2000/svg"
        xmlns:sodipodi="http://sodipodi.sourceforge.net/DTD/sodipodi-0.dtd"
        xmlns:inkscape="http://www.inkscape.org/namespaces/inkscape"
        version="1.1"
        id="svg2"
        xml:space="preserve"
        width="164.84"
        height="35.799999"
        viewBox="0 0 164.84 35.799999"
        sodipodi:docname="in-bug_RGB_Blue_Learning.eps"><metadata
     id="metadata8"><rdf:RDF><cc:Work
         rdf:about=""><dc:format>image/svg+xml</dc:format><dc:type
           rdf:resource="http://purl.org/dc/dcmitype/StillImage" /></cc:Work></rdf:RDF></metadata><defs
     id="defs6" /><sodipodi:namedview
     pagecolor="#ffffff"
     bordercolor="#666666"
     borderopacity="1"
     objecttolerance="10"
     gridtolerance="10"
     guidetolerance="10"
     inkscape:pageopacity="0"
     inkscape:pageshadow="2"
     inkscape:window-width="640"
     inkscape:window-height="480"
     id="namedview4" /><g
     id="g10"
     inkscape:groupmode="layer"
     inkscape:label="ink_ext_XXXXXX"
     transform="matrix(1.3333333,0,0,-1.3333333,0,35.8)"><g
       id="g12"
       transform="scale(0.1)"><path
         d="M 239.457,268.465 H 19.0859 c -10.53902,0 -19.08980625,-8.34 -19.08980625,-18.641 V 28.5234 C -0.00390625,18.2227 8.54688,9.86328 19.0859,9.86328 H 239.457 c 10.551,0 19.145,8.35942 19.145,18.66012 V 249.824 c 0,10.301 -8.594,18.641 -19.145,18.641 M 76.6914,48.1055 H 38.332 V 171.523 H 76.6914 Z M 57.5234,188.379 c -12.2929,0 -22.2382,9.98 -22.2382,22.254 0,12.265 9.9453,22.226 22.2382,22.226 12.2618,0 22.2305,-9.961 22.2305,-22.226 0,-12.274 -9.9687,-22.254 -22.2305,-22.254 M 220.359,48.1055 h -38.336 v 60.0075 c 0,14.328 -0.257,32.735 -19.925,32.735 -19.965,0 -23.024,-15.594 -23.024,-31.7 V 48.1055 H 100.75 V 171.512 h 36.797 v -16.864 h 0.508 c 5.117,9.707 17.633,19.942 36.289,19.942 38.844,0 46.015,-25.567 46.015,-58.789 V 48.1055"
         style="fill:#0a66c2;fill-opacity:1;fill-rule:nonzero;stroke:none"
         id="path14" /><path
         d="M 332.316,48.1523 V 230.371 H 359.91 V 71.8438 h 78.875 V 48.1523 H 332.316"
         style="fill:#0a66c2;fill-opacity:1;fill-rule:nonzero;stroke:none"
         id="path16" /><path
         d="m 471.574,117.918 h 63.258 c -1.301,15.098 -13.019,28.117 -30.195,28.117 -17.442,0 -29.938,-11.457 -33.063,-28.117 z M 559.82,76.7852 c -11.187,-22.6446 -32.8,-31.7579 -55.449,-31.7579 -35.656,0 -60.391,25.5079 -60.391,61.4377 0,35.918 26.032,62.215 60.657,62.215 32.019,0 59.355,-21.094 59.355,-69.5003 v -0.2656 h -92.418 c 2.086,-17.9571 14.84,-30.9766 33.324,-30.9766 11.196,0 23.684,3.125 32.793,18.7422 l 22.129,-9.8945"
         style="fill:#0a66c2;fill-opacity:1;fill-rule:nonzero;stroke:none"
         id="path18" /><path
         d="m 596.52,106.98 c 0,-22.3823 14.835,-39.5581 36.449,-39.5581 21.344,0 36.441,17.1758 36.441,39.5581 0,22.395 -15.097,39.309 -36.441,39.309 -21.614,0 -36.449,-16.914 -36.449,-39.309 z m 71.847,-41.648 c -6.25,-11.7109 -22.129,-20.3047 -39.304,-20.3047 -34.102,0 -59.094,26.0352 -59.094,61.9527 0,35.93 24.472,61.7 58.574,61.7 17.441,0 33.574,-8.856 40.09,-20.567 v 17.442 h 25.769 V 48.1523 H 668.367 V 65.332"
         style="fill:#0a66c2;fill-opacity:1;fill-rule:nonzero;stroke:none"
         id="path20" /><path
         d="m 784.195,142.645 c -2.859,0.265 -5.73,0.519 -8.328,0.519 -22.644,0 -32.804,-13.019 -32.804,-36.699 V 48.1523 h -25.77 V 165.555 h 25.254 v -18.75 c 5.723,11.984 16.133,20.832 32.539,20.832 2.859,0 5.984,-0.266 9.109,-0.782 v -24.21"
         style="fill:#0a66c2;fill-opacity:1;fill-rule:nonzero;stroke:none"
         id="path22" /><path
         d="M 822.715,48.1523 H 796.941 V 165.555 h 25.254 v -14.317 c 9.895,11.192 23.164,17.442 38.008,17.442 27.59,0 43.731,-17.188 43.731,-43.992 V 48.1523 H 878.16 v 72.8907 c 0,16.66 -10.406,24.465 -23.426,24.465 -11.191,0 -22.129,-5.723 -32.019,-17.18 V 48.1523"
         style="fill:#0a66c2;fill-opacity:1;fill-rule:nonzero;stroke:none"
         id="path24" /><path
         d="m 926.836,207.723 c 0,10.156 8.062,18.488 18.223,18.488 10.144,0 18.472,-8.332 18.472,-18.488 0,-10.157 -8.328,-18.223 -18.472,-18.223 -10.161,0 -18.223,8.066 -18.223,18.223 z m 6.766,-63.512 h -17.707 v 21.344 h 43.48 V 48.1523 h -25.773 v 96.0587"
         style="fill:#0a66c2;fill-opacity:1;fill-rule:nonzero;stroke:none"
         id="path26" /><path
         d="M 1013.77,48.1523 H 987.996 V 165.555 h 25.254 v -14.317 c 9.89,11.192 23.16,17.442 38.01,17.442 27.59,0 43.73,-17.188 43.73,-43.992 V 48.1523 h -25.77 v 72.8907 c 0,16.66 -10.41,24.465 -23.43,24.465 -11.19,0 -22.13,-5.723 -32.02,-17.18 V 48.1523"
         style="fill:#0a66c2;fill-opacity:1;fill-rule:nonzero;stroke:none"
         id="path28" /><path
         d="m 1138.71,106.98 c 0,-22.3823 14.83,-39.3042 36.18,-39.3042 21.61,0 36.45,16.9219 36.45,39.3042 0,22.649 -14.84,39.571 -36.45,39.571 -21.35,0 -36.18,-16.922 -36.18,-39.571 z m 97.62,58.575 V 50.7617 C 1236.33,13.7891 1206.91,0 1173.86,0 c -18.49,0 -37.76,3.64063 -50.25,10.1445 l 2.61,23.4297 c 16.91,-7.8047 31.49,-11.457 46.59,-11.457 24.73,0 37.48,10.6758 37.48,31.5039 v 11.9727 c -6.24,-11.4532 -22.12,-20.0469 -39.31,-20.0469 -33.83,0 -58.82,25.5156 -58.82,61.4331 0,36.184 24.47,61.7 58.57,61.7 17.18,0 33.32,-8.856 39.56,-20.047 v 16.922 h 26.04"
         style="fill:#0a66c2;fill-opacity:1;fill-rule:nonzero;stroke:none"
         id="path30" /></g></g></svg>
