<?xml version="1.0" encoding="utf-8"?>
<svg version="1.1"
     id="svg2" sodipodi:docname="in-bug_RGB_Blue_Learning.eps"
     xmlns:inkscape="http://www.inkscape.org/namespaces/inkscape"
     xmlns:sodipodi="http://sodipodi.sourceforge.net/DTD/sodipodi-0.dtd"
     xmlns="http://www.w3.org/2000/svg" x="0px" y="0px" viewBox="0 0 200 200"
     style="enable-background:new 0 0 200 200;" xml:space="preserve">
<style type="text/css">
	.st0{fill:#FFFFFF;}
	.st1{fill:#0A66C2;}
</style>
<sodipodi:namedview  bordercolor="#666666" borderopacity="1" gridtolerance="10" guidetolerance="10" id="namedview4" inkscape:pageopacity="0" inkscape:pageshadow="2" inkscape:window-height="480" inkscape:window-width="640" objecttolerance="10" pagecolor="#ffffff">
	</sodipodi:namedview>
<g id="g10" transform="matrix(1.3333333,0,0,-1.3333333,0,35.8)" inkscape:groupmode="layer" inkscape:label="ink_ext_XXXXXX">
	<g id="g12" transform="scale(0.1)">
		<path id="path14" class="st1" d="M371.31-347.29H150.94c-10.54,0-19.09-8.34-19.09-18.64v-221.3c0-10.3,8.55-18.66,19.09-18.66
			h220.37c10.55,0,19.14,8.36,19.14,18.66v221.3C390.45-355.63,381.86-347.29,371.31-347.29 M208.54-567.64h-38.36v123.42h38.36
			V-567.64z M189.37-427.37c-12.29,0-22.24,9.98-22.24,22.25c0,12.27,9.95,22.23,22.24,22.23c12.26,0,22.23-9.96,22.23-22.23
			C211.6-417.39,201.64-427.37,189.37-427.37 M352.21-567.64h-38.34v60.01c0,14.33-0.26,32.74-19.93,32.74
			c-19.96,0-23.02-15.59-23.02-31.7v-61.04H232.6v123.41h36.8v-16.86h0.51c5.12,9.71,17.63,19.94,36.29,19.94
			c38.84,0,46.01-25.57,46.01-58.79V-567.64"/>
		<path id="path16" class="st1" d="M464.17-567.6v182.22h27.59v-158.53h78.88v-23.69H464.17"/>
		<path id="path18" class="st1" d="M603.42-497.83h63.26c-1.3,15.1-13.02,28.12-30.2,28.12
			C619.05-469.72,606.55-481.17,603.42-497.83z M691.67-538.96c-11.19-22.64-32.8-31.76-55.45-31.76
			c-35.66,0-60.39,25.51-60.39,61.44c0,35.92,26.03,62.21,60.66,62.21c32.02,0,59.35-21.09,59.35-69.5v-0.27h-92.42
			c2.09-17.96,14.84-30.98,33.32-30.98c11.2,0,23.68,3.13,32.79,18.74L691.67-538.96"/>
		<path id="path20" class="st1" d="M728.37-508.77c0-22.38,14.84-39.56,36.45-39.56c21.34,0,36.44,17.18,36.44,39.56
			c0,22.39-15.1,39.31-36.44,39.31C743.21-469.46,728.37-486.38,728.37-508.77z M800.22-550.42c-6.25-11.71-22.13-20.3-39.3-20.3
			c-34.1,0-59.09,26.04-59.09,61.95c0,35.93,24.47,61.7,58.57,61.7c17.44,0,33.57-8.86,40.09-20.57v17.44h25.77v-117.4h-26.04
			V-550.42"/>
		<path id="path22" class="st1" d="M916.05-473.11c-2.86,0.27-5.73,0.52-8.33,0.52c-22.64,0-32.8-13.02-32.8-36.7v-58.31h-25.77
			v117.4h25.25v-18.75c5.72,11.98,16.13,20.83,32.54,20.83c2.86,0,5.98-0.27,9.11-0.78V-473.11"/>
		<path id="path24" class="st1" d="M954.57-567.6h-25.77v117.4h25.25v-14.32c9.9,11.19,23.16,17.44,38.01,17.44
			c27.59,0,43.73-17.19,43.73-43.99v-76.54h-25.77v72.89c0,16.66-10.41,24.46-23.43,24.46c-11.19,0-22.13-5.72-32.02-17.18
			L954.57-567.6"/>
		<path id="path26" class="st1" d="M1058.69-408.03c0,10.16,8.06,18.49,18.22,18.49c10.14,0,18.47-8.33,18.47-18.49
			c0-10.16-8.33-18.22-18.47-18.22C1066.75-426.25,1058.69-418.18,1058.69-408.03z M1065.45-471.54h-17.71v21.34h43.48v-117.4
			h-25.77V-471.54"/>
		<path id="path28" class="st1" d="M1145.62-567.6h-25.77v117.4h25.25v-14.32c9.89,11.19,23.16,17.44,38.01,17.44
			c27.59,0,43.73-17.19,43.73-43.99v-76.54h-25.77v72.89c0,16.66-10.41,24.46-23.43,24.46c-11.19,0-22.13-5.72-32.02-17.18
			L1145.62-567.6"/>
		<path id="path30" class="st1" d="M1270.56-508.77c0-22.38,14.83-39.3,36.18-39.3c21.61,0,36.45,16.92,36.45,39.3
			c0,22.65-14.84,39.57-36.45,39.57C1285.39-469.2,1270.56-486.12,1270.56-508.77z M1368.18-450.2v-114.79
			c0-36.97-29.42-50.76-62.47-50.76c-18.49,0-37.76,3.64-50.25,10.14l2.61,23.43c16.91-7.8,31.49-11.46,46.59-11.46
			c24.73,0,37.48,10.68,37.48,31.5v11.97c-6.24-11.45-22.12-20.05-39.31-20.05c-33.83,0-58.82,25.52-58.82,61.43
			c0,36.18,24.47,61.7,58.57,61.7c17.18,0,33.32-8.86,39.56-20.05v16.92H1368.18"/>
	</g>
</g>
</svg>
